<svg width="514" height="593" viewBox="0 0 514 593" fill="none" xmlns="http://www.w3.org/2000/svg">
<path d="M90.4574 437.174C14.4944 479.949 57.2697 585.413 82.3448 589.838C101.658 593.246 165.149 591.292 195.921 589.838L434.134 413.574L294.745 394.399C251.97 394.399 151.228 402.954 90.4574 437.174Z" fill="white"/>
<path d="M195.92 589.838C194.822 589.893 197.111 589.781 195.92 589.838ZM195.92 589.838C165.149 591.292 101.658 593.246 82.3448 589.838C57.2697 585.413 14.4944 479.949 90.4574 437.174C151.228 402.954 251.97 394.399 294.745 394.399L434.134 413.574L195.92 589.838Z" stroke="black" stroke-width="2.91102"/>
<path d="M111.106 451.652C163.616 441.622 206.244 472.465 220.994 489.14C223.457 485.695 226.122 482.289 228.998 478.94C224.464 459.027 136.181 437.64 111.106 451.652Z" fill="#000001"/>
<path d="M190.596 592.02C192.46 591.939 194.239 591.858 195.92 591.778L390.486 447.812C381.915 444.913 359.823 435.994 340.029 423.509C205.733 439.423 184.451 542.481 190.596 592.02Z" fill="#0E1729"/>
<path d="M412.745 591.777C509.357 560.802 434.132 420.676 434.132 415.514L397.994 410.542C213.912 421.905 186.576 536.1 195.918 591.777H309.5H313.919H412.745Z" fill="white" stroke="black" stroke-width="2.91102"/>
<path d="M294.745 538.678C306.545 550.478 312.446 578.995 313.921 591.778H324.983C322.033 577.274 311.855 546.348 294.745 538.678Z" fill="#000001"/>
<path d="M309.714 144.588C305.83 139.643 295.73 124.458 286.407 103.27C288.526 100.797 292.551 93.3104 291.704 83.1398C280.686 81.4447 274.009 57.7134 272.048 46.0596C286.679 37.9435 274.212 16.2929 278.991 15.3366C284.288 14.2766 298.061 19.5738 298.061 33.3464C298.061 47.119 321.657 40.618 327.725 37.5841C342.556 30.1681 337.26 48.1796 330.903 65.13C327.513 71.0628 339.378 82.4341 345.735 87.3781C347.429 104.329 332.315 130.462 324.546 141.409C325.606 173.192 325.818 236.758 318.19 236.758C313.105 226.588 310.421 171.073 309.714 144.588Z" fill="white" stroke="black" stroke-width="1.94068"/>
<path d="M300.177 48.1725C298.411 49.9383 295.939 54.9529 300.177 60.8858" stroke="#241715" stroke-width="0.970341"/>
<path d="M308.652 64.0718C307.946 67.9564 304.838 73.8186 298.058 66.1907" stroke="#241715" stroke-width="0.970341"/>
<path d="M331.96 51.3538C333.372 47.4692 335.138 39.9119 330.9 40.7594" stroke="#241715" stroke-width="0.970341"/>
<path d="M290.572 94.7916C291.506 91.5569 292.075 87.6066 291.702 83.1383C297.573 86.317 307.592 87.3765 328.781 72.5435C329.627 83.5616 303.661 91.9664 290.572 94.7916Z" fill="black"/>
<path d="M344.674 15.3356C352.09 33.346 335.139 57.713 330.901 65.129C337.258 48.1786 341.495 30.1671 327.723 37.5832C321.75 40.7994 298.059 47.1181 298.059 33.3454C298.059 19.5728 284.286 14.2756 278.989 15.3356C274.21 16.2919 286.677 37.9426 272.047 46.0587C270.46 46.9386 268.556 47.6594 266.276 48.1775C271.573 40.7615 269.454 41.8209 265.216 23.8105C260.979 5.80016 280.049 1.56296 298.059 -0.555904C316.069 -2.67477 337.258 -2.67477 344.674 15.3356Z" fill="black"/>
<path d="M444.26 129.756C430.699 111.957 372.924 94.0883 345.732 87.3785C347.427 104.329 332.313 130.462 324.544 141.41C325.604 173.193 325.815 236.759 318.188 236.759C313.102 226.588 310.418 171.074 309.712 144.588C305.827 139.644 295.728 124.459 286.405 103.27C284.286 109.627 227.076 153.063 217.541 166.836C208.006 180.609 204.828 313.038 204.828 324.692C204.828 336.346 200.59 415.803 235.552 415.803C263.521 415.803 377.869 419.688 435.784 421.1C444.26 331.401 457.82 147.554 444.26 129.756Z" fill="black"/>
<path d="M204.831 324.685C262.747 312.678 378.578 299.471 378.578 342.696C378.578 385.92 324.9 410.349 298.061 417.159M378.578 96.8068C371.515 100.018 356.542 115.129 353.152 149.879C348.914 193.315 335.311 208.147 324.291 208.147M313.477 210.266C304.454 215.21 284.712 218.954 277.932 194.375C269.457 163.651 251.774 146.7 232.011 151.997M410.361 108.561C408.242 107.665 374.341 130.809 371.162 183.78C367.984 236.752 334.082 336.339 264.159 283.367C237.672 256.881 212.151 240.284 207.865 242.049M286.408 416.839C295.942 407.663 312.47 386.344 302.299 374.479C292.128 362.613 236.497 378.716 209.953 388.251M449.348 157.295C426.464 171.42 384.299 216.411 398.708 283.367C411.421 321.507 434.653 317.622 444.68 310.913M440.847 362.825C427.153 363.005 401.038 374.754 406.124 420.305" stroke="white" stroke-width="0.970341"/>
<path d="M318.188 415.793V237.808" stroke="#027269" stroke-width="0.970341"/>
<path d="M318.824 414.06L313.617 375.347C301.777 377.495 277.119 379.576 258.071 381.381C238.13 383.271 233.105 393.741 246.49 397.085C239.489 396.211 231.65 405.864 242.822 410.186C234.627 413.097 250.836 416.345 258.782 416.361C254.234 417.048 246.349 418.315 247.421 423.134C248.493 427.952 295.469 419.092 318.824 414.06Z" fill="white"/>
<path d="M318.824 414.061L313.617 375.348C310.863 375.848 307.415 376.344 303.505 376.834L291.66 419.452C301.612 417.642 311.409 415.659 318.824 414.061Z" fill="black"/>
<path d="M259.106 416.646L275.58 412.009" stroke="black" stroke-width="0.970341"/>
<path d="M246.596 406.301L275.476 402.795" stroke="black" stroke-width="0.970341"/>
<path d="M246.491 397.084L275.988 391.982" stroke="black" stroke-width="0.970341"/>
<path d="M475.692 380.065C478.255 339.491 481.054 135.022 435.286 124C382.382 111.259 383.076 306.255 406.043 350.74L298.016 361.722L308.152 429.123C360.673 425.455 471.449 447.203 475.692 380.065Z" fill="black"/>
<path d="M435.285 123.999C382.382 111.259 383.075 306.254 406.043 350.74L298.015 361.722" stroke="white" stroke-width="0.970341"/>
<path d="M457.322 153.383C440.975 155.161 404.645 164.599 395.733 186.721M467.493 188.981C452.761 195.425 418.271 217.117 413.92 239.385C409.57 261.652 455.646 254.134 474.274 250.005M475.404 288.993C459.92 296.222 405.644 301.02 393.473 284.473M475.968 358.493C460.111 348.87 414.46 329.661 402.514 337.022M359.571 355.103C352.79 369.794 363.409 423.815 393.473 429.689" stroke="white" stroke-width="0.970341"/>
<path d="M12.3235 277.958H194.26C197.447 277.958 200.311 279.907 201.481 282.872L255.515 419.842C256.685 422.807 259.548 424.756 262.736 424.756H404.251C406.854 424.756 408.964 426.866 408.964 429.469C408.964 432.073 406.854 434.183 404.251 434.183H68.1181C64.9355 434.183 62.0753 432.24 60.9021 429.282L5.10748 288.582C3.0867 283.486 6.84155 277.958 12.3235 277.958Z" fill="white" stroke="black" stroke-width="2.91102"/>
<path d="M200.651 280.629L260.502 424.756H256.46C253.326 424.756 250.499 422.871 249.294 419.977L192.65 283.956C191.462 281.103 193.559 277.958 196.65 277.958C198.401 277.958 199.98 279.012 200.651 280.629Z" fill="black"/>
<path d="M60.9021 429.282L5.10748 288.582C3.08667 283.486 6.84155 277.958 12.3235 277.958H26.3518C27.5066 277.958 28.6434 278.216 29.6923 278.699C34.6578 280.986 42.954 284.582 56.7308 291.543C102.822 314.831 108.644 364.318 98.9406 388.577C91.074 408.243 195.053 428.571 235.905 434.183H68.1181C64.9355 434.183 62.0753 432.24 60.9021 429.282Z" fill="black"/>
<ellipse cx="11.5736" cy="13.3097" rx="11.5736" ry="13.3097" transform="matrix(-0.936312 0.351169 0.351169 0.936312 129.862 326.475)" fill="black"/>
</svg>
